<svg id="Layer_1" xmlns="http://www.w3.org/2000/svg" viewBox="0 0 212.6 49.98"><style>.st0{fill:#FFFFFF;}</style><path class="st0" d="M53.12 45.96c0-.87 0-1.02-.01-1.2-.01-.19-.06-.28-.24-.32-.04-.01-.14-.02-.19-.02-.02 0-.04-.01-.04-.03 0-.03.03-.04.09-.04.13 0 .28 0 .4.01l.23.01c.04 0 1.14 0 1.27-.01.11-.01.19-.02.24-.03.03-.01.05-.03.08-.03.02 0 .02.02.02.05 0 .04-.03.11-.04.26-.01.06-.02.3-.03.37-.01.03-.02.06-.04.06-.03 0-.04-.03-.04-.07 0-.04-.01-.13-.03-.2-.04-.09-.09-.16-.39-.19-.09-.01-.7-.02-.76-.02-.02 0-.03.02-.03.06v1.53c0 .04.01.06.03.06.07 0 .76 0 .88-.01.13-.01.21-.02.26-.08.04-.04.06-.07.08-.07.02 0 .03.01.03.04s-.03.13-.04.31c-.01.11-.02.32-.02.36 0 .04 0 .11-.04.11-.03 0-.04-.02-.04-.05 0-.06 0-.11-.02-.18-.02-.08-.07-.17-.29-.19-.15-.02-.7-.03-.79-.03-.03 0-.04.02-.04.04v.49c0 .19-.01.83 0 .95.02.38.1.46.64.46.14 0 .39 0 .53-.06s.21-.17.25-.4c.01-.06.02-.08.05-.08.03 0 .03.04.03.08s-.04.42-.07.54c-.04.14-.08.14-.3.14-.42 0-.72-.01-.94-.02-.22-.01-.35-.02-.43-.02-.01 0-.11 0-.22.01-.11 0-.24.01-.32.01-.06 0-.09-.01-.09-.04 0-.02.01-.03.04-.03.05 0 .12-.01.17-.02.11-.02.14-.14.16-.31.03-.23.03-.67.03-1.21v-.99zM57.41 46.4l-.89-1.49c-.13-.22-.24-.38-.43-.44-.09-.03-.2-.04-.23-.04s-.05-.02-.05-.04c0-.03.02-.04.09-.04.16 0 .61.02.65.02.05 0 .33-.02.52-.02.08 0 .09.01.09.04s-.02.04-.05.04-.11 0-.15.02c-.05.02-.07.06-.07.09 0 .06.02.12.06.18.23.44.46.85.75 1.33.17-.24.76-1.19.82-1.31.04-.08.06-.13.06-.2 0-.04-.04-.08-.09-.1-.06-.02-.13-.02-.17-.02-.03 0-.05-.01-.05-.04 0-.02.03-.04.09-.04.21 0 .44.02.49.02.05 0 .28-.02.47-.02.06 0 .09.02.09.04s-.02.04-.06.04c-.04 0-.12.01-.18.03-.16.05-.27.21-.43.45l-.89 1.34c.11.17 1.06 1.79 1.17 1.94.09.12.17.2.33.25.08.02.16.03.19.03s.04.01.04.03c0 .03-.03.04-.08.04-.34 0-.61 0-.89-.01-.14-.01-.17-.02-.17-.04s.01-.04.03-.04c.03-.01.08-.07.03-.16-.3-.54-.62-1.09-.96-1.65l-.87 1.47c-.05.09-.07.19-.07.24 0 .06.04.09.09.11.03.01.08.01.11.01s.04.02.04.04c0 .03-.03.04-.07.04-.13 0-.48-.02-.53-.02s-.32.02-.51.02c-.04 0-.06-.02-.06-.04s.02-.04.04-.04c.04 0 .13-.01.21-.03.17-.04.28-.17.46-.45l1.03-1.58zM60.49 48.02c-.54-.48-.67-1.12-.67-1.64 0-.37.13-1.02.62-1.52.33-.33.84-.59 1.69-.59.22 0 .53.02.81.07.21.04.39.07.57.08.06.01.07.03.07.06 0 .04-.02.11-.03.31-.01.18-.01.49-.02.57-.01.08-.02.12-.05.12-.04 0-.04-.04-.04-.12 0-.22-.09-.44-.23-.57-.19-.17-.62-.32-1.11-.32-.74 0-1.08.22-1.28.41-.41.39-.5.88-.5 1.45 0 1.06.82 2.03 2.01 2.03.42 0 .74-.05.97-.28.12-.12.19-.37.21-.47.01-.06.02-.08.06-.08.03 0 .04.04.04.08s-.07.52-.12.71c-.03.11-.04.12-.14.16-.22.09-.64.13-1 .13-.86.01-1.43-.19-1.86-.59zM65.39 46.94c0 .82.02 1.17.12 1.27.09.09.23.13.67.13.29 0 .54-.01.67-.17.07-.09.13-.23.14-.33.01-.04.02-.07.05-.07.03 0 .03.02.03.08s-.04.39-.08.56c-.04.13-.06.15-.35.15-.4 0-.69-.01-.92-.02-.23-.01-.41-.02-.57-.02-.02 0-.12.01-.23.01-.11.01-.23.01-.32.01-.06 0-.09-.01-.09-.04 0-.02.01-.03.04-.03.05 0 .12-.01.17-.02.11-.02.14-.14.16-.31.03-.23.03-.67.03-1.21v-.98c0-.87 0-1.02-.01-1.2-.01-.19-.06-.28-.24-.32-.04-.01-.14-.02-.19-.02-.02 0-.04-.01-.04-.03 0-.03.03-.04.09-.04.25 0 .6.02.63.02s.43-.02.6-.02c.06 0 .09.01.09.04 0 .02-.02.03-.04.03-.04 0-.12.01-.18.02-.16.03-.21.12-.22.32-.01.18-.01.33-.01 1.2v.99zM67.86 45.96c0-.87 0-1.02-.01-1.2-.01-.19-.06-.28-.24-.32-.04-.01-.14-.02-.19-.02-.02 0-.04-.01-.04-.03 0-.03.03-.04.09-.04.25 0 .59.02.64.02.05 0 .38-.02.55-.02.06 0 .09.01.09.04 0 .02-.02.03-.04.03-.04 0-.07.01-.14.02-.15.02-.19.12-.21.32-.01.18-.01.33-.01 1.2v.78c0 .8.18 1.14.42 1.37.27.26.52.31.84.31.34 0 .67-.16.87-.4.26-.32.32-.79.32-1.36v-.69c0-.87 0-1.02-.01-1.2-.01-.19-.06-.28-.24-.32-.04-.01-.14-.02-.19-.02-.02 0-.04-.01-.04-.03 0-.03.03-.04.09-.04.25 0 .56.02.59.02.04 0 .3-.02.47-.02.06 0 .09.01.09.04 0 .02-.02.03-.04.03-.04 0-.07.01-.14.02-.15.03-.19.12-.21.32-.01.18-.01.33-.01 1.2v.59c0 .6-.07 1.27-.51 1.66-.4.36-.82.41-1.14.41-.19 0-.75-.02-1.14-.39-.27-.26-.48-.65-.48-1.46v-.82zM72.44 48.47c-.08-.04-.08-.06-.08-.21 0-.28.02-.5.03-.59.01-.06.02-.09.04-.09.03 0 .04.02.04.06 0 .05 0 .13.02.21.08.41.45.57.82.57.53 0 .79-.38.79-.74 0-.38-.16-.61-.64-1l-.25-.21c-.59-.48-.72-.83-.72-1.21 0-.59.44-1 1.15-1 .22 0 .38.02.52.06.11.02.15.03.19.03.04 0 .06.01.06.04s-.02.21-.02.59c0 .09-.01.13-.04.13s-.04-.03-.04-.07c-.01-.07-.04-.22-.07-.28-.03-.06-.18-.29-.69-.29-.38 0-.68.24-.68.64 0 .32.14.52.68.93l.16.12c.66.52.81.86.81 1.31 0 .23-.09.65-.47.92-.24.17-.54.23-.84.23-.29 0-.55-.04-.77-.15zM76.43 46.93c0 .53 0 .97.03 1.21.02.16.05.28.22.31.08.01.2.02.25.02.03 0 .04.02.04.03 0 .03-.03.04-.09.04-.31 0-.66-.02-.68-.02s-.38.02-.54.02c-.06 0-.09-.01-.09-.04 0-.02.01-.03.04-.03.05 0 .12-.01.17-.02.11-.02.14-.14.16-.31.03-.23.03-.67.03-1.21v-.98c0-.87 0-1.02-.01-1.2-.01-.19-.07-.28-.19-.31-.06-.02-.13-.02-.17-.02-.02 0-.04-.01-.04-.03 0-.03.03-.04.09-.04.18 0 .53.02.56.02s.38-.02.54-.02c.06 0 .09.01.09.04 0 .02-.02.03-.04.03-.04 0-.07.01-.14.02-.15.03-.19.12-.21.32-.01.18-.01.33-.01 1.2v.97zM79.61 47.87c.32-.74 1.07-2.68 1.19-3.08.03-.08.05-.16.05-.21 0-.04-.02-.1-.07-.13-.07-.02-.15-.02-.21-.02-.03 0-.06-.01-.06-.03 0-.03.03-.04.12-.04.22 0 .48.02.54.02.03 0 .27-.02.43-.02.06 0 .09.01.09.04s-.02.04-.07.04c-.04 0-.16 0-.27.07-.07.05-.16.14-.31.52-.06.16-.34.82-.62 1.51-.34.81-.59 1.41-.72 1.68-.16.33-.18.42-.23.42-.07 0-.09-.08-.2-.34l-1.36-3.4c-.12-.31-.21-.37-.4-.43-.08-.02-.18-.02-.21-.02s-.04-.02-.04-.04c0-.03.06-.04.14-.04.27 0 .58.02.65.02.06 0 .31-.02.52-.02.1 0 .15.01.15.04s-.02.04-.06.04c-.06 0-.16.01-.21.03-.06.03-.07.07-.07.11 0 .07.07.24.15.46l1.08 2.82zM83 46.93c0 .53 0 .97.03 1.21.02.16.05.28.22.31.08.01.2.02.25.02.03 0 .04.02.04.03 0 .03-.03.04-.09.04-.31 0-.66-.02-.68-.02-.03 0-.38.02-.54.02-.06 0-.09-.01-.09-.04 0-.02.01-.03.04-.03.05 0 .12-.01.17-.02.11-.02.14-.14.16-.31.03-.23.03-.67.03-1.21v-.98c0-.87 0-1.02-.01-1.2-.01-.19-.07-.28-.19-.31-.06-.02-.13-.02-.17-.02-.02 0-.04-.01-.04-.03 0-.03.03-.04.09-.04.18 0 .53.02.56.02.03 0 .38-.02.54-.02.06 0 .09.01.09.04 0 .02-.02.03-.04.03-.04 0-.07.01-.14.02-.15.03-.19.12-.21.32-.02.17-.02.33-.02 1.2v.97zM84.98 45.96c0-.87 0-1.02-.01-1.2-.01-.19-.06-.28-.24-.32-.04-.01-.14-.02-.19-.02-.02 0-.04-.01-.04-.03 0-.03.03-.04.09-.04.25 0 .6.02.63.02.07 0 .42-.02.75-.02.55 0 1.57-.05 2.23.63.28.29.54.75.54 1.41 0 .7-.29 1.24-.6 1.57-.24.25-.74.64-1.68.64-.24 0-.53-.02-.77-.03-.24-.02-.43-.03-.46-.03-.01 0-.11 0-.22.01-.11 0-.24.01-.32.01-.06 0-.09-.01-.09-.04 0-.02.01-.03.04-.03.05 0 .12-.01.17-.02.11-.02.14-.14.16-.31.03-.23.03-.67.03-1.21v-.99zm.46.6c0 .59.01 1.1.01 1.21.01.14.02.36.06.42.07.11.29.22.94.22.52 0 .99-.19 1.32-.52.29-.28.44-.82.44-1.33 0-.71-.31-1.16-.53-1.4-.52-.55-1.16-.63-1.82-.63-.11 0-.32.02-.36.04-.05.02-.07.05-.07.11-.01.19-.01.76-.01 1.18v.7zM90.82 44.48c.07-.18.09-.22.12-.22s.06.03.12.2c.08.21.96 2.51 1.29 3.35.2.49.36.58.48.62.08.03.17.03.22.03.03 0 .06.01.06.03 0 .03-.05.04-.11.04-.08 0-.49 0-.87-.01-.11-.01-.17-.01-.17-.04 0-.02.02-.03.04-.04.03-.01.07-.06.03-.15l-.52-1.37c-.01-.02-.02-.03-.05-.03h-1.19c-.03 0-.04.02-.06.04l-.33.98c-.05.14-.08.27-.08.37 0 .11.12.16.21.16h.06c.04 0 .06.01.06.03 0 .03-.03.04-.08.04-.13 0-.37-.02-.43-.02s-.37.02-.63.02c-.07 0-.11-.01-.11-.04 0-.02.02-.03.05-.03.04 0 .12-.01.16-.01.26-.03.37-.24.47-.52l1.26-3.43zm.57 2.23c.03 0 .03-.02.02-.04l-.53-1.5c-.03-.08-.06-.08-.08 0l-.49 1.5c-.01.03 0 .04.02.04h1.06zM93.91 45.96c0-.87 0-1.02-.01-1.2-.01-.19-.06-.28-.24-.32-.04-.01-.14-.02-.19-.02-.02 0-.04-.01-.04-.03 0-.03.03-.04.09-.04.25 0 .6.02.63.02.07 0 .42-.02.75-.02.55 0 1.57-.05 2.23.63.28.29.54.75.54 1.41 0 .7-.29 1.24-.6 1.57-.24.25-.74.64-1.68.64-.24 0-.53-.02-.77-.03-.24-.02-.43-.03-.46-.03-.01 0-.11 0-.22.01-.11 0-.24.01-.32.01-.06 0-.09-.01-.09-.04 0-.02.01-.03.04-.03.05 0 .12-.01.17-.02.11-.02.14-.14.16-.31.03-.23.03-.67.03-1.21v-.99zm.46.6c0 .59.01 1.1.01 1.21.01.14.02.36.06.42.07.11.29.22.94.22.52 0 .99-.19 1.32-.52.29-.28.44-.82.44-1.33 0-.71-.31-1.16-.53-1.4-.52-.55-1.16-.63-1.82-.63-.11 0-.32.02-.36.04-.05.02-.07.05-.07.11-.01.19-.01.76-.01 1.18v.7zM98.95 45.96c0-.87 0-1.02-.01-1.2-.01-.19-.06-.28-.24-.32-.04-.01-.14-.02-.19-.02-.02 0-.04-.01-.04-.03 0-.03.03-.04.09-.04.13 0 .28 0 .4.01l.23.01c.04 0 1.14 0 1.27-.01.11-.01.19-.02.24-.03.03-.01.05-.03.08-.03.02 0 .02.02.02.05 0 .04-.03.11-.04.26-.01.06-.02.3-.03.37-.01.03-.02.06-.04.06-.03 0-.04-.03-.04-.07 0-.04-.01-.13-.03-.2-.04-.09-.09-.16-.39-.19-.09-.01-.7-.02-.76-.02-.02 0-.03.02-.03.06v1.53c0 .04.01.06.03.06.07 0 .76 0 .88-.01.13-.01.21-.02.26-.08.04-.04.06-.07.08-.07.02 0 .03.01.03.04s-.03.13-.04.31c-.01.11-.02.32-.02.36 0 .04 0 .11-.04.11-.03 0-.04-.02-.04-.05 0-.06 0-.11-.02-.18-.02-.08-.07-.17-.29-.19-.15-.02-.7-.03-.79-.03-.03 0-.04.02-.04.04v.49c0 .19-.01.83 0 .95.02.38.1.46.64.46.14 0 .39 0 .53-.06s.21-.17.25-.4c.01-.06.02-.08.05-.08.03 0 .03.04.03.08s-.04.42-.07.54c-.04.14-.08.14-.3.14-.42 0-.72-.01-.94-.02-.22-.01-.35-.02-.43-.02-.01 0-.11 0-.22.01-.11 0-.24.01-.32.01-.06 0-.09-.01-.09-.04 0-.02.01-.03.04-.03.05 0 .12-.01.17-.02.11-.02.14-.14.16-.31.03-.23.03-.67.03-1.21v-.99zM104.3 47.79c.01.46.07.6.22.64.11.03.23.03.28.03.03 0 .04.01.04.03 0 .03-.03.04-.1.04-.32 0-.54-.02-.59-.02-.05 0-.28.02-.53.02-.06 0-.09-.01-.09-.04 0-.02.02-.03.04-.03.04 0 .14-.01.23-.03.14-.04.17-.2.17-.71l.01-3.18c0-.22.02-.28.06-.28s.14.12.19.18c.08.09.91.99 1.77 1.91.55.59 1.16 1.27 1.33 1.45l-.06-2.82c-.01-.36-.04-.48-.22-.53-.1-.02-.23-.03-.27-.03-.04 0-.04-.02-.04-.04 0-.03.04-.04.11-.04.25 0 .52.02.58.02s.24-.02.47-.02c.06 0 .1.01.1.04 0 .02-.02.04-.06.04-.03 0-.07 0-.13.02-.18.04-.21.16-.21.49l-.01 3.26c0 .37-.01.39-.05.39s-.11-.06-.41-.36c-.06-.06-.86-.87-1.45-1.51-.64-.69-1.27-1.39-1.45-1.59l.07 2.67zM110.21 44.48c.07-.18.09-.22.12-.22s.06.03.12.2c.08.21.96 2.51 1.29 3.35.2.49.36.58.48.62.08.03.17.03.22.03.03 0 .06.01.06.03 0 .03-.05.04-.11.04-.08 0-.49 0-.87-.01-.11-.01-.17-.01-.17-.04 0-.02.02-.03.04-.04.03-.01.07-.06.03-.15l-.52-1.37c-.01-.02-.02-.03-.05-.03h-1.19c-.03 0-.04.02-.06.04l-.33.98c-.05.14-.08.27-.08.37 0 .11.12.16.21.16h.06c.04 0 .06.01.06.03 0 .03-.03.04-.08.04-.13 0-.37-.02-.43-.02s-.37.02-.63.02c-.07 0-.11-.01-.11-.04 0-.02.02-.03.05-.03.04 0 .12-.01.16-.01.26-.03.37-.24.47-.52l1.26-3.43zm.58 2.23c.03 0 .03-.02.02-.04l-.53-1.5c-.03-.08-.06-.08-.08 0l-.49 1.5c-.01.03 0 .04.02.04h1.06zM113 48.47c-.08-.04-.08-.06-.08-.21 0-.28.02-.5.03-.59.01-.06.02-.09.04-.09.03 0 .04.02.04.06 0 .05 0 .13.02.21.08.41.45.57.82.57.53 0 .79-.38.79-.74 0-.38-.16-.61-.64-1l-.25-.21c-.59-.48-.72-.83-.72-1.21 0-.59.44-1 1.15-1 .22 0 .38.02.52.06.11.02.15.03.19.03.04 0 .06.01.06.04s-.02.21-.02.59c0 .09-.01.13-.04.13s-.04-.03-.04-.07c-.01-.07-.04-.22-.07-.28-.03-.06-.18-.29-.69-.29-.38 0-.68.24-.68.64 0 .32.14.52.68.93l.16.12c.66.52.81.86.81 1.31 0 .23-.09.65-.47.92-.24.17-.54.23-.84.23-.29 0-.54-.04-.77-.15zM119.13 44.48c.07-.18.09-.22.12-.22s.06.03.12.2c.08.21.96 2.51 1.29 3.35.2.49.36.58.48.62.08.03.17.03.22.03.03 0 .06.01.06.03 0 .03-.05.04-.11.04-.08 0-.49 0-.87-.01-.11-.01-.17-.01-.17-.04 0-.02.02-.03.04-.04.03-.01.07-.06.03-.15l-.52-1.37c-.01-.02-.02-.03-.05-.03h-1.19c-.03 0-.04.02-.06.04l-.33.98c-.05.14-.08.27-.08.37 0 .11.12.16.21.16h.06c.04 0 .06.01.06.03 0 .03-.03.04-.08.04-.13 0-.37-.02-.43-.02s-.37.02-.63.02c-.07 0-.11-.01-.11-.04 0-.02.02-.03.05-.03.04 0 .12-.01.16-.01.26-.03.37-.24.47-.52l1.26-3.43zm.58 2.23c.03 0 .03-.02.02-.04l-.53-1.5c-.03-.08-.06-.08-.08 0l-.49 1.5c-.01.03 0 .04.02.04h1.06zM122.22 45.96c0-.87 0-1.02-.01-1.2-.01-.19-.06-.28-.24-.32-.04-.01-.14-.02-.19-.02-.02 0-.04-.01-.04-.03 0-.03.03-.04.09-.04.25 0 .6.02.63.02.06 0 .48-.02.66-.02.35 0 .72.03 1.02.24.14.1.38.37.38.76 0 .41-.17.82-.67 1.28.46.58.83 1.08 1.16 1.42.3.32.54.38.68.4.11.02.18.02.22.02.03 0 .05.02.05.03 0 .03-.03.04-.13.04h-.39c-.31 0-.45-.03-.59-.11-.24-.13-.43-.4-.75-.82-.23-.3-.49-.68-.61-.82-.02-.02-.04-.03-.07-.03l-.68-.01c-.03 0-.04.02-.04.04v.13c0 .53 0 .97.03 1.21.02.16.05.28.22.31.08.01.2.02.25.02.03 0 .04.02.04.03 0 .03-.03.04-.09.04-.31 0-.66-.02-.68-.02-.01 0-.36.02-.52.02-.06 0-.09-.01-.09-.04 0-.02.01-.03.04-.03.05 0 .12-.01.17-.02.11-.02.14-.14.16-.31.03-.23.03-.67.03-1.21v-.96zm.45.48c0 .03.01.05.04.07.08.05.34.09.58.09.13 0 .29-.02.42-.11.19-.13.34-.43.34-.86 0-.69-.37-1.11-.96-1.11-.17 0-.32.02-.37.03-.03.01-.04.03-.04.07v1.82zM126.41 45.96c0-.87 0-1.02-.01-1.2-.01-.19-.06-.28-.24-.32-.04-.01-.14-.02-.19-.02-.02 0-.04-.01-.04-.03 0-.03.03-.04.09-.04.13 0 .28 0 .4.01l.23.01c.04 0 1.14 0 1.27-.01.11-.01.19-.02.24-.03.03-.01.05-.03.08-.03.02 0 .02.02.02.05 0 .04-.03.11-.04.26-.01.06-.02.3-.03.37-.01.03-.02.06-.04.06-.03 0-.04-.03-.04-.07 0-.04-.01-.13-.03-.2-.04-.09-.09-.16-.39-.19-.09-.01-.7-.02-.76-.02-.02 0-.03.02-.03.06v1.53c0 .04.01.06.03.06.07 0 .76 0 .88-.01.13-.01.21-.02.26-.08.04-.04.06-.07.08-.07.02 0 .03.01.03.04s-.03.13-.04.31c-.01.11-.02.32-.02.36 0 .04 0 .11-.04.11-.03 0-.04-.02-.04-.05 0-.06 0-.11-.02-.18-.02-.08-.07-.17-.29-.19-.15-.02-.7-.03-.79-.03-.03 0-.04.02-.04.04v.49c0 .19-.01.83 0 .95.02.38.1.46.64.46.14 0 .39 0 .53-.06s.21-.17.25-.4c.01-.06.02-.08.05-.08.03 0 .03.04.03.08s-.04.42-.07.54c-.04.14-.08.14-.3.14-.42 0-.72-.01-.94-.02-.22-.01-.35-.02-.43-.02-.01 0-.11 0-.22.01-.11 0-.24.01-.32.01-.06 0-.09-.01-.09-.04 0-.02.01-.03.04-.03.05 0 .12-.01.17-.02.11-.02.14-.14.16-.31.03-.23.03-.67.03-1.21v-.99zM130.27 46.93c0 .53 0 .97.03 1.21.02.16.05.28.22.31.08.01.2.02.25.02.03 0 .04.02.04.03 0 .03-.03.04-.09.04-.31 0-.66-.02-.68-.02s-.38.02-.54.02c-.06 0-.09-.01-.09-.04 0-.02.01-.03.04-.03.05 0 .12-.01.17-.02.11-.02.14-.14.16-.31.03-.23.03-.67.03-1.21v-.98c0-.87 0-1.02-.01-1.2-.01-.19-.07-.28-.19-.31-.06-.02-.13-.02-.17-.02-.02 0-.04-.01-.04-.03 0-.03.03-.04.09-.04.18 0 .53.02.56.02s.38-.02.54-.02c.06 0 .09.01.09.04 0 .02-.02.03-.04.03-.04 0-.07.01-.14.02-.15.03-.19.12-.21.32-.01.18-.01.33-.01 1.2v.97zM133.05 44.48c.07-.18.09-.22.12-.22s.06.03.12.2c.08.21.96 2.51 1.29 3.35.2.49.36.58.48.62.08.03.17.03.22.03.03 0 .06.01.06.03 0 .03-.05.04-.11.04-.08 0-.49 0-.87-.01-.11-.01-.17-.01-.17-.04 0-.02.02-.03.04-.04.03-.01.07-.06.03-.15l-.52-1.37c-.01-.02-.02-.03-.05-.03h-1.19c-.03 0-.04.02-.06.04l-.33.98c-.05.14-.08.27-.08.37 0 .11.12.16.21.16h.06c.04 0 .06.01.06.03 0 .03-.03.04-.08.04-.13 0-.37-.02-.43-.02s-.37.02-.63.02c-.07 0-.11-.01-.11-.04 0-.02.02-.03.05-.03.04 0 .12-.01.16-.01.26-.03.37-.24.47-.52l1.26-3.43zm.58 2.23c.03 0 .03-.02.02-.04l-.53-1.5c-.03-.08-.06-.08-.08 0l-.49 1.5c-.01.03 0 .04.02.04h1.06zM135.84 48.47c-.08-.04-.08-.06-.08-.21 0-.28.02-.5.03-.59.01-.06.02-.09.04-.09.03 0 .04.02.04.06 0 .05 0 .13.02.21.08.41.45.57.82.57.53 0 .79-.38.79-.74 0-.38-.16-.61-.64-1l-.25-.21c-.59-.48-.72-.83-.72-1.21 0-.59.44-1 1.15-1 .22 0 .38.02.52.06.11.02.15.03.19.03.04 0 .06.01.06.04s-.02.21-.02.59c0 .09-.01.13-.04.13s-.04-.03-.04-.07c-.01-.07-.04-.22-.07-.28-.03-.06-.18-.29-.69-.29-.38 0-.68.24-.68.64 0 .32.14.52.68.93l.16.12c.66.52.81.86.81 1.31 0 .23-.09.65-.47.92-.24.17-.54.23-.84.23-.29 0-.54-.04-.77-.15zM141.17 45.96c0-.87 0-1.02-.01-1.2-.01-.19-.06-.28-.24-.32-.04-.01-.14-.02-.19-.02-.02 0-.04-.01-.04-.03 0-.03.03-.04.09-.04.25 0 .6.02.63.02.07 0 .42-.02.75-.02.55 0 1.57-.05 2.23.63.28.29.54.75.54 1.41 0 .7-.29 1.24-.6 1.57-.24.25-.74.64-1.68.64-.24 0-.53-.02-.77-.03-.24-.02-.43-.03-.46-.03-.01 0-.11 0-.22.01-.11 0-.24.01-.32.01-.06 0-.09-.01-.09-.04 0-.02.01-.03.04-.03.05 0 .12-.01.17-.02.11-.02.14-.14.16-.31.03-.23.03-.67.03-1.21v-.99zm.47.6c0 .59.01 1.1.01 1.21.01.14.02.36.06.42.07.11.29.22.94.22.52 0 .99-.19 1.32-.52.29-.28.44-.82.44-1.33 0-.71-.31-1.16-.53-1.4-.52-.55-1.16-.63-1.82-.63-.11 0-.32.02-.36.04-.05.02-.07.05-.07.11-.01.19-.01.76-.01 1.18v.7zM147.82 44.27c1.25 0 2.18.79 2.18 2.08 0 1.24-.88 2.27-2.22 2.27-1.52 0-2.16-1.18-2.16-2.18.02-.9.67-2.17 2.2-2.17zm.12 4.14c.5 0 1.53-.29 1.53-1.91 0-1.33-.81-2.05-1.69-2.05-.93 0-1.62.61-1.62 1.83 0 1.3.78 2.13 1.78 2.13zM153.16 45.96c0-.87 0-1.02-.01-1.2-.01-.19-.06-.28-.24-.32-.04-.01-.14-.02-.19-.02-.02 0-.04-.01-.04-.03 0-.03.03-.04.09-.04.25 0 .6.02.63.02.07 0 .42-.02.75-.02.55 0 1.57-.05 2.23.63.28.29.54.75.54 1.41 0 .7-.29 1.24-.6 1.57-.24.25-.74.64-1.68.64-.24 0-.53-.02-.77-.03-.24-.02-.43-.03-.46-.03-.01 0-.11 0-.22.01-.11 0-.24.01-.32.01-.06 0-.09-.01-.09-.04 0-.02.01-.03.04-.03.05 0 .12-.01.17-.02.11-.02.14-.14.16-.31.03-.23.03-.67.03-1.21v-.99zm.47.6c0 .59.01 1.1.01 1.21.01.14.02.36.06.42.07.11.29.22.94.22.52 0 .99-.19 1.32-.52.29-.28.44-.82.44-1.33 0-.71-.31-1.16-.53-1.4-.52-.55-1.16-.63-1.82-.63-.11 0-.32.02-.36.04-.05.02-.07.05-.07.11-.01.19-.01.76-.01 1.18v.7zM158.2 45.96c0-.87 0-1.02-.01-1.2-.01-.19-.06-.28-.24-.32-.04-.01-.14-.02-.19-.02-.02 0-.04-.01-.04-.03 0-.03.03-.04.09-.04.13 0 .28 0 .4.01l.23.01c.04 0 1.14 0 1.27-.01.11-.01.19-.02.24-.03.03-.01.05-.03.08-.03.02 0 .02.02.02.05 0 .04-.03.11-.04.26-.01.06-.02.3-.03.37-.01.03-.02.06-.04.06-.03 0-.04-.03-.04-.07 0-.04-.01-.13-.03-.2-.04-.09-.09-.16-.39-.19-.09-.01-.7-.02-.76-.02-.02 0-.03.02-.03.06v1.53c0 .04.01.06.03.06.07 0 .76 0 .88-.01.13-.01.21-.02.26-.08.04-.04.06-.07.08-.07.02 0 .03.01.03.04s-.03.13-.04.31c-.01.11-.02.32-.02.36 0 .04 0 .11-.04.11-.03 0-.04-.02-.04-.05 0-.06 0-.11-.02-.18-.02-.08-.07-.17-.29-.19-.15-.02-.7-.03-.79-.03-.03 0-.04.02-.04.04v.49c0 .19-.01.83 0 .95.02.38.1.46.64.46.14 0 .39 0 .53-.06s.21-.17.25-.4c.01-.06.02-.08.05-.08.03 0 .03.04.03.08s-.04.42-.07.54c-.04.14-.08.14-.3.14-.42 0-.72-.01-.94-.02-.22-.01-.35-.02-.43-.02-.01 0-.11 0-.22.01-.11 0-.24.01-.32.01-.06 0-.09-.01-.09-.04 0-.02.01-.03.04-.03.05 0 .12-.01.17-.02.11-.02.14-.14.16-.31.03-.23.03-.67.03-1.21v-.99zM161.24 48.47c-.08-.04-.08-.06-.08-.21 0-.28.02-.5.03-.59.01-.06.02-.09.04-.09.03 0 .04.02.04.06 0 .05 0 .13.02.21.08.41.45.57.82.57.53 0 .79-.38.79-.74 0-.38-.16-.61-.64-1l-.25-.21c-.59-.48-.72-.83-.72-1.21 0-.59.44-1 1.15-1 .22 0 .38.02.52.06.11.02.15.03.19.03.04 0 .06.01.06.04s-.02.21-.02.59c0 .09-.01.13-.04.13s-.04-.03-.04-.07c-.01-.07-.04-.22-.07-.28-.03-.06-.18-.29-.69-.29-.38 0-.68.24-.68.64 0 .32.14.52.68.93l.16.12c.66.52.81.86.81 1.31 0 .23-.09.65-.47.92-.24.17-.54.23-.84.23-.29 0-.54-.04-.77-.15zM164.76 45.96c0-.87 0-1.02-.01-1.2-.01-.19-.06-.28-.24-.32-.04-.01-.14-.02-.19-.02-.02 0-.04-.01-.04-.03 0-.03.03-.04.09-.04.13 0 .28 0 .4.01l.23.01c.04 0 1.14 0 1.27-.01.11-.01.19-.02.24-.03.03-.01.05-.03.08-.03.02 0 .02.02.02.05 0 .04-.03.11-.04.26-.01.06-.02.3-.03.37-.01.03-.02.06-.04.06-.03 0-.04-.03-.04-.07 0-.04-.01-.13-.03-.2-.04-.09-.09-.16-.39-.19-.09-.01-.7-.02-.76-.02-.02 0-.03.02-.03.06v1.53c0 .04.01.06.03.06.07 0 .76 0 .88-.01.13-.01.21-.02.26-.08.04-.04.06-.07.08-.07.02 0 .03.01.03.04s-.03.13-.04.31c-.01.11-.02.32-.02.36 0 .04 0 .11-.04.11-.03 0-.04-.02-.04-.05 0-.06 0-.11-.02-.18-.02-.08-.07-.17-.29-.19-.15-.02-.7-.03-.79-.03-.03 0-.04.02-.04.04v.49c0 .19-.01.83 0 .95.02.38.1.46.64.46.14 0 .39 0 .53-.06s.21-.17.25-.4c.01-.06.02-.08.05-.08.03 0 .03.04.03.08s-.04.42-.07.54c-.04.14-.08.14-.3.14-.42 0-.72-.01-.94-.02-.22-.01-.35-.02-.43-.02-.01 0-.11 0-.22.01-.11 0-.24.01-.32.01-.06 0-.09-.01-.09-.04 0-.02.01-.03.04-.03.05 0 .12-.01.17-.02.11-.02.14-.14.16-.31.03-.23.03-.67.03-1.21v-.99zM168.15 45.96c0-.87 0-1.02-.01-1.2-.01-.19-.06-.28-.24-.32-.04-.01-.14-.02-.19-.02-.02 0-.04-.01-.04-.03 0-.03.03-.04.09-.04.25 0 .6.02.63.02.06 0 .48-.02.66-.02.35 0 .72.03 1.02.24.14.1.38.37.38.76 0 .41-.17.82-.67 1.28.46.58.83 1.08 1.16 1.42.3.32.54.38.68.4.11.02.18.02.22.02.03 0 .05.02.05.03 0 .03-.03.04-.13.04h-.39c-.31 0-.45-.03-.59-.11-.24-.13-.43-.4-.75-.82-.23-.3-.49-.68-.61-.82-.02-.02-.04-.03-.07-.03l-.68-.01c-.03 0-.04.02-.04.04v.13c0 .53 0 .97.03 1.21.02.16.05.28.22.31.08.01.2.02.25.02.03 0 .04.02.04.03 0 .03-.03.04-.09.04-.31 0-.66-.02-.68-.02-.01 0-.36.02-.52.02-.06 0-.09-.01-.09-.04 0-.02.01-.03.04-.03.05 0 .12-.01.17-.02.11-.02.14-.14.16-.31.03-.23.03-.67.03-1.21v-.96zm.45.48c0 .03.01.05.04.07.08.05.34.09.58.09.13 0 .29-.02.42-.11.19-.13.34-.43.34-.86 0-.69-.37-1.11-.96-1.11-.17 0-.32.02-.37.03-.03.01-.04.03-.04.07v1.82zM173.25 46.93c0 .53 0 .97.03 1.21.02.16.05.28.22.31.08.01.2.02.25.02.03 0 .04.02.04.03 0 .03-.03.04-.09.04-.31 0-.66-.02-.68-.02s-.38.02-.54.02c-.06 0-.09-.01-.09-.04 0-.02.01-.03.04-.03.05 0 .12-.01.17-.02.11-.02.14-.14.16-.31.03-.23.03-.67.03-1.21v-2.35l-.82.01c-.34.01-.48.04-.57.18-.06.09-.08.13-.09.17-.02.04-.03.06-.06.06-.02 0-.03-.02-.03-.05 0-.06.11-.53.12-.58.01-.03.03-.11.06-.11.04 0 .09.06.24.07.16.02.37.03.44.03h2.08c.18 0 .31-.01.39-.03.08-.01.13-.03.16-.03s.03.03.03.07c0 .17-.02.55-.02.61 0 .05-.02.07-.04.07-.03 0-.04-.02-.04-.09l-.01-.06c-.02-.17-.15-.29-.68-.31l-.7-.01v2.35zM177.3 44.27c1.25 0 2.18.79 2.18 2.08 0 1.24-.88 2.27-2.22 2.27-1.52 0-2.16-1.18-2.16-2.18.01-.9.66-2.17 2.2-2.17zm.11 4.14c.5 0 1.53-.29 1.53-1.91 0-1.33-.81-2.05-1.69-2.05-.93 0-1.62.61-1.62 1.83 0 1.3.78 2.13 1.78 2.13z"/><g><path class="st0" d="M33.39 12.44c-.49-.28-.78-.76-.86-1.45.72-.88 1.06-1.61 1.02-2.2-.04-.59-.35-1.09-.93-1.5-.58-.41-2.88-.21-6.9.6-4.02.81-6.5 2.38-7.42 4.7-.92 2.32-1.59 3.8-2 4.43-.41.63-.53 2.2-.35 4.72.18 2.52.19 4.07.05 4.66-.14.59.33 1.58 1.41 2.99 1.09 1.41 2.41 2.08 3.98 2.03 1.56-.05 2.76-.28 3.59-.67-.54-1.12-.83-2.22-.85-3.31-.02-1.09.14-2.23.5-3.42s1.04-2.15 2.03-2.89c.99-.74 1.95-1.06 2.87-.95.92.11 1.64.58 2.16 1.41.52.83.55 2.16.08 3.98-.47 1.82-1.8 3.7-3.99 5.66 2.42 1.03 3.93 2.08 4.54 3.17.61 1.09.84 2.29.71 3.61-.13 1.32-.92 2.82-2.36 4.49-1.44 1.67-4.01 3.11-7.69 4.32-3.69 1.21-7.32 2.05-10.89 2.49-3.57.45-5.85.67-6.84.67-.88 0-1.76-.11-2.66-.32-.89-.21-1.53-.51-1.92-.9-.37-.38-.6-.87-.67-1.46.05-.8.67-1.61 1.87-2.44 1.2-.82 2.4-1.35 3.6-1.58 1.2-.23 1.99-.47 2.38-.7.39-.24.84-.21 1.38.09-.42.76-1.23 1.29-2.43 1.58-1.2.29-1.93.85-2.17 1.67s.62 1.4 2.6 1.73c1.97.33 5.23-.13 9.78-1.38 4.55-1.24 7.72-2.58 9.52-4.01 1.8-1.43 2.81-3.02 3.03-4.77.22-1.75-1.17-3.46-4.16-5.13-1.22.69-2.44 1.17-3.66 1.42-1.21.26-2.39.17-3.52-.26-1.14-.43-2.1-1.09-2.91-1.97-.8-.88-1.32-2.11-1.54-3.69-.22-1.57-.3-3.02-.22-4.32.07-1.31.03-2.28-.13-2.92-.16-.64-.24-1.3-.24-1.97 0-1.06.43-2.66 1.28-4.81.85-2.15 2.16-4.04 3.91-5.68 1.75-1.63 3.61-2.73 5.56-3.29 1.95-.56 4.05-.86 6.28-.9 2.12.04 3.63.28 4.51.72.88.44 1.33 1.02 1.33 1.75-.06.88-.29 1.75-.68 2.63-.4.87-1.06 2-1.98 3.37zM27.08 29.3c1.26-1.44 1.84-2.63 1.73-3.58-.11-.94-.38-1.39-.81-1.33s-.84.37-1.26.93c-.41.57-.61 1.19-.58 1.86.03.68.34 1.38.92 2.12zM34.58 26.95c0-.43.2-1.14.6-2.13.4-.99.87-1.78 1.41-2.38.54-.6.86-1.12.96-1.56l.3-1.3c.1-.43.38-.72.84-.84.46-.13.78-.19.96-.19.54 0 1.12.26 1.74.79.62.53 1.15 1.4 1.59 2.6.44 1.2.73 1.95.85 2.24.12.29.51.32 1.15.1.3.07.44.32.44.74 0 .79-.34 1.38-1.01 1.77-.68.39-1.2.52-1.58.4-.38-.12-.71.28-.99 1.2-.28.92-.71 1.63-1.27 2.13-.57.5-1.12 1.1-1.64 1.81-.53.71-1.1 1.12-1.73 1.25-.39 0-.81-.27-1.25-.8-.44-.53-.77-1.15-1.01-1.86-.25-.72-.36-2.04-.36-3.97zm3.18 1.27c.51.88.98 1 1.41.37.42-.63.8-1.4 1.13-2.32.33-.91.24-1.68-.25-2.3-.49-.62-1.03-.77-1.61-.46-.58.31-.97.95-1.16 1.93-.21.99-.04 1.91.48 2.78zM57.53 23.81c-.87 3.43-1.98 5.9-3.35 7.41-1.36 1.52-2.75 2.27-4.16 2.27-1.04 0-1.85-.47-2.44-1.4-.59-.93-.94-1.94-1.05-3.02-.11-1.08-.28-2.68-.51-4.8.18-2.37.32-4.64.41-6.83.1-2.18.13-4.53.1-7.05-.03-2.52.14-4.22.5-5.12s.79-1.77 1.29-2.63c.5-.86 1.1-1.51 1.79-1.97.7-.44 1.71-.67 3.03-.67 1.13 0 1.9.79 2.31 2.37-.02 1.52-.22 2.79-.61 3.81s-.65 1.93-.79 2.72c-.14.8-.21 1.51-.21 2.14 0 .63-.28.88-.84.75-.56-.13-.89-.46-.99-.99-.1-.53-.07-.95.1-1.24.16-.3.35-.81.55-1.54.2-.73.3-1.7.29-2.92-.01-1.21-.61-1.93-1.81-2.15-1.19-.22-1.89.49-2.09 2.12-.2 1.63-.15 4 .15 7.1.3 3.1.35 5.44.16 7.01-.19 1.57-.23 2.57-.12 2.98.11.41.01 1.39-.3 2.94-.32 1.55-.09 2.9.69 4.06.77 1.16 1.57 1.44 2.4.87.82-.58 1.59-1.35 2.3-2.32.71-.97 1.45-2.31 2.21-4.01l.99.11z"/><path class="st0" d="M55.38 30.43c0-.33.08-.87.24-1.64.16-.76.34-1.72.56-2.86.21-1.14.67-2.29 1.37-3.44.7-1.15 1.57-2.01 2.62-2.58 1.05-.57 1.84-.8 2.38-.7.54.1.81.43.82 1 .01.57-.37.99-1.13 1.26s-1.47.79-2.14 1.56c-.67.77-1.14 2.07-1.42 3.91-.28 1.84-.08 2.82.61 2.94s1.34-.6 1.95-2.17c.61-1.56 1.27-2.65 1.98-3.27.71-.61 1.12-1.42 1.24-2.41.12-1 .19-2.11.23-3.35.03-1.23.16-2.27.36-3.12.21-.84.28-2.26.21-4.26-.07-1.99-.1-3.68-.1-5.07 0-1.39.1-2.35.31-2.89s.82-.95 1.85-1.22l3.63.4c-.06.54-.55.8-1.48.79-.93-.02-1.35 1.6-1.25 4.86s.02 5.89-.22 7.88c-.24 1.99-.26 3.43-.05 4.31.21.88.18 1.91-.1 3.09-.27 1.18-.35 2.57-.24 4.18.11 1.61.28 2.61.53 2.99.24.39.56.62.95.69s.52.38.4.92-.58.89-1.38 1.05c-.79.16-1.43-.01-1.91-.51s-.82-1.09-1.04-1.77c-.21-.68-.27-1.69-.16-3.04.1-1.35.07-2.07-.09-2.14-.16-.07-.46.04-.88.36s-.76.97-1 1.99-.59 1.93-1.04 2.74-.95 1.48-1.49 2.01c-.54.53-1.37.8-2.49.81-.88-.07-1.54-.47-1.97-1.21-.44-.72-.66-1.42-.66-2.09zM84.49 24.67c-1.77 2.46-3.04 4.06-3.82 4.81-.78.75-1.53 1.38-2.25 1.9s-1.39.92-2.02 1.19c-.63.28-1.16.45-1.6.53-.44.07-.79.11-1.04.11-.29 0-.68-.16-1.18-.48-.5-.32-.88-.88-1.13-1.67-.25-.79-.37-1.84-.37-3.13 0-.41.11-1.25.32-2.52.21-1.26.63-2.44 1.27-3.52.63-1.09 1.29-1.88 1.98-2.38s1.38-.76 2.08-.76c.52 0 1 .18 1.44.53.43.36.77.9 1.01 1.63.24.73.23 1.41-.02 2.05-.25.64-.71 1.26-1.38 1.88-.67.62-1.37 1.18-2.12 1.7s-1.23.95-1.45 1.3c-.22.35-.28.71-.17 1.08.11.38.45.62 1.02.75.57.12 1.22.13 1.94.01.72-.12 1.48-.54 2.29-1.27.8-.73 1.57-1.52 2.31-2.38.74-.86 1.28-1.45 1.62-1.77.33-.32.76-.18 1.27.41zm-9.53.09c.61-.49.93-1 .95-1.51.02-.51-.06-.79-.24-.83-.18-.04-.48.13-.88.52-.42.38-.36.99.17 1.82z"/><path class="st0" d="M82.51 24.97c.26-1.43.62-2.54 1.1-3.32.48-.78 1.2-1.2 2.18-1.26.97-.05 1.22.61.73 1.98-.48 1.38-.57 2.71-.26 4.01.31 1.3.68 1.74 1.1 1.33.42-.41.89-.98 1.4-1.73.51-.74 1.14-1.73 1.89-2.95.75-1.23 1.33-2.09 1.76-2.57.43-.48.78-.73 1.06-.73.17 0 .39.08.66.25.27.17.38.84.34 2.01-.04 1.18.01 2.8.17 4.88s.64 2.74 1.44 1.98c.8-.76 1.62-1.63 2.46-2.64.83-1 1.42-1.66 1.77-1.98.35-.32.77-.18 1.29.41-1.6 2.2-2.78 3.73-3.53 4.58-.75.85-1.4 1.49-1.95 1.92-.54.43-.94.85-1.18 1.26-.24.41-.71.65-1.41.72h-.1c-.65 0-1.13-.65-1.42-1.94-.32-1.35-.53-2.81-.64-4.37-.11-1.56-.5-1.68-1.16-.37-.67 1.31-1.28 2.68-1.83 4.1-.55 1.42-1.13 2.23-1.72 2.41-.17.06-.33.09-.49.09-.39 0-.75-.17-1.07-.52-.44-.48-.72-1.24-.83-2.28-.11-1.04-.25-1.9-.44-2.58-.18-.69-.5-1.35-.94-1.99l-.38-.7zM176.07 24.67c-1.56 2.29-2.86 4.06-3.89 5.32-1.03 1.25-1.83 2.09-2.4 2.5-.57.41-1.12.6-1.65.56-.53-.03-.91-.42-1.13-1.17-.22-.75-.39-1.48-.53-2.19-.14-.72-.46-.79-.96-.23-.72 1.65-1.3 2.7-1.73 3.17-.43.46-.91.7-1.44.7-.53 0-1.05-.25-1.56-.76-.5-.5-.9-1-1.18-1.5-.29-.5-.39-1.25-.32-2.25s.15-1.77.23-2.32c.08-.54.06-1.11-.06-1.69-.12-.58-.36-1.17-.73-1.77-.37-.6-.57-1.16-.61-1.68.01-.37.36-.82 1.04-1.37.68-.55 1.23-.86 1.66-.94.41.05.73.24.94.57.21.33.39.89.54 1.68.15.79.15 1.35 0 1.67-.15.33-.13.94.05 1.83.18.89.22 1.7.11 2.41-.11.71-.06 1.28.13 1.7.2.42.5.49.92.18.41-.3.75-.71.99-1.22.25-.51.49-1.12.74-1.81s.53-1.32.86-1.9c.33-.57.59-1.25.81-2.04.21-.79.59-1.16 1.13-1.13.54.04 1.08.24 1.61.6.54.36.57.88.11 1.56-.46.68-.8 1.25-1.01 1.71-.21.46-.32 1-.32 1.62 0 .62.07 1.09.21 1.41.14.33.34.74.61 1.24s.77.44 1.52-.19 1.52-1.49 2.32-2.58c.8-1.09 1.37-1.79 1.72-2.11.33-.31.75-.17 1.27.42z"/><path class="st0" d="M181.96 0c1.13 0 1.9.79 2.31 2.37-.02 1.52-.22 2.79-.61 3.81s-.65 1.93-.79 2.72c-.14.8-.21 1.51-.21 2.14 0 .63-.28.88-.84.75-.56-.13-.89-.46-.99-.99-.1-.53-.06-.95.1-1.24.17-.3.35-.81.55-1.54.2-.73.29-1.7.28-2.92-.01-1.21-.61-1.93-1.8-2.15-1.19-.22-1.89.49-2.09 2.12-.2 1.63-.15 4.07.15 7.32s.16 6.81-.44 10.69c.85-1.71 1.62-2.9 2.32-3.58.7-.68 1.41-.84 2.12-.5.71.34 1.38.82 2 1.43.62.61.96 1.76 1.01 3.45-.2 2.9-.81 4.91-1.85 6.01-1.04 1.11-1.82 1.96-2.34 2.56-.52.6-1.26.97-2.22 1.1-.91-.15-1.56-.47-1.96-.95-.4-.49-.72-1.26-.96-2.31s-.4-2.35-.48-3.89c.21-2.9.17-6.65-.1-11.25.14-5.69.39-8.98.76-9.87.37-.89.79-1.77 1.29-2.63.49-.86 1.09-1.51 1.78-1.97.68-.45 1.69-.68 3.01-.68zm-4.14 27.47c-.07 1.48.18 2.52.73 3.11.56.59.96.74 1.2.44s.6-.96 1.09-2.01c.48-1.04.71-2.2.67-3.48-.04-1.28-.38-2.28-1.01-2.99-.64-.72-1.23-.44-1.77.82-.55 1.27-.86 2.64-.91 4.11zM202.16 24.33c-1.87 2.96-3.46 5.25-4.8 6.86-1.33 1.61-2.45 2.44-3.35 2.5-.81 0-1.29-.38-1.45-1.13-.16-.75-.3-1.42-.42-2.01-.12-.59-.43-.73-.93-.42s-.93.87-1.3 1.69c-.37.81-.95 1.22-1.73 1.22s-1.32-.36-1.63-1.07c-.31-.72-.46-1.46-.46-2.23 0-1.67.57-3.42 1.72-5.26 1.14-1.84 2.15-3.22 3.03-4.16s1.59-1.53 2.15-1.78c.68.19 1.26.62 1.73 1.31.47.69.78 1.33.94 1.92.16.59.05 1.06-.33 1.4-.38.34-.69.9-.94 1.68-.25.78-.38 1.65-.38 2.62 0 .97.06 1.76.19 2.39.13.63.68.6 1.65-.07.97-.68 1.96-1.74 2.96-3.21 1-1.46 1.68-2.35 2.03-2.67.36-.32.8-.18 1.32.42zm-13.46 2.99c0 1.19.26 1.54.79 1.04s1.06-1.25 1.58-2.25.68-1.77.47-2.3c-.22-.53-.75-.31-1.58.66s-1.26 1.92-1.26 2.85z"/><path class="st0" d="M199.79 25.99c.81-1.42 1.61-2.92 2.41-4.49.8-1.57 1.66-2.4 2.59-2.48.67.06 1.14.24 1.42.54.28.3.3 1.07.06 2.3-.24 1.23-.38 2.96-.41 5.17-.04 2.22.36 3.01 1.19 2.37.83-.64 1.7-1.63 2.59-2.97.89-1.34 1.52-2.15 1.88-2.41.36-.27.72-.03 1.07.7-2.2 3.05-3.78 5.21-4.75 6.47-.96 1.26-1.9 2.04-2.82 2.32-1.26-.14-1.97-1.09-2.12-2.85-.15-1.76-.12-3.52.1-5.26.22-1.75.07-2.25-.44-1.5s-1.22 1.67-2.13 2.76l-.64-.67zm4.46-11.17c0-.54.19-.97.56-1.3.38-.32.86-.48 1.45-.48.54 0 .96.21 1.26.64.3.43.44.86.44 1.3-.05.48-.25.85-.6 1.09-.35.24-.77.36-1.25.36-.54-.05-.98-.21-1.3-.48-.33-.27-.51-.64-.56-1.13zM156.37 20.02l-.36-2.27c-.42-3.09-1.14-4.96-2.13-6.98s-3.15-5.31-6.7-6.45c-1.5-.48-4.44-.69-6.98-.58-2.7.12-4.99.44-6.32.64-1.19.17-3.51.9-4.72 3-.19.33-.57 1.49-.57 1.79-.01.17-.02.35-.02.54 0 .76-.08 2.02-.13 3.11-.05 1.12-.05 1.58-.15 2.4-.06.5-.02 2.56-.13 3.3-.1.74-.05 1.3.16 1.67.21.37.78 1.11 1.96 1.2 1.18.09 3.01-.34 3.75-.75.75-.41 1.22-.87 1.41-1.38.2-.5.3-.99.3-1.45-.33-.28-.67-.22-1.04.16s-.91.67-1.63.87c-.65.18-1.98.37-2.22.21-.24-.16-.15-2.36-.08-3.06.1-.96.2-1.3.25-1.9.13-1.35.15-1.59.13-3.46-.02-1.21.6-2.22 1.4-2.7.64-.39 1.31-.75 2.29-.91.45-.07 2.61-.4 4.72-.68 2.57-.34 4.87.2 5.79.38 3.54.68 5.39 3.5 6.32 5.86.93 2.36 1.49 3.67 1.67 5.32l.18 2.12c.11 2.63-.12 4.78-.69 6.46-.57 1.68-1.74 3.13-3.51 4.35-1.77 1.21-3.46 1.87-5.07 1.95-1.61.09-3.34-.01-5.2-.3-1.86-.29-4.19-2.12-7-5.51-2.81-3.39-5.19-5.69-7.12-6.91-1.93-1.22-3.57-1.97-4.91-2.26-1.34-.29-2.53-.26-3.58.08-1.05.34-2.39 1.36-4.01 3.07-1.62 1.71-2.69 3.43-3.21 5.16s-.8 3.06-.85 3.98c.05.79.26 1.61.64 2.46.38.85 1.26 1.94 2.65 3.28 1.39 1.34 3.45 2.44 6.19 3.29 2.73.86 5.21 1.29 7.42 1.29 1.3-.11 2.35-.39 3.15-.86.8-.46 1.08-.82.85-1.08-.23-.26-.87-.23-1.92.08-1.05.31-2.4.28-4.06-.08-1.65-.37-3.56-1.06-5.72-2.09-2.16-1.03-3.84-1.98-5.06-2.86-1.22-.88-1.9-1.78-2.05-2.72-.15-.93.2-2.37 1.06-4.3.85-1.93 1.88-3.47 3.07-4.61s2.32-1.75 3.38-1.84c1.06-.08 2.45.58 4.18 2.01 1.73 1.42 3.37 2.97 4.9 4.65 1.53 1.68 3.07 3.24 4.61 4.69 1.54 1.45 3.21 2.44 5 2.97 1.79.53 3.75.76 5.88.68 2.13-.08 4.03-.37 5.71-.88 1.68-.51 3.21-1.44 4.61-2.81 1.39-1.36 2.2-2.58 2.44-3.66.23-1.08.49-2.37.78-3.88.27-1.49.37-2.76.29-3.8z"/></g></svg>