<svg id="Layer_1" xmlns="http://www.w3.org/2000/svg" viewBox="0 0 41 56.69"><style>.st0{fill-rule:evenodd;clip-rule:evenodd;fill:#FFFFFF;}</style><path class="st0" d="M6.33 18.08l-2.1 1.24.4 1.73 2.16.2 3.15-.99c-.63-1.71-.79-3.57-.48-5.63l5.74 1.86c.08.92.14 1.42.39 1.98l3.62-1.14c-.15-.23-.24-.51-.24-.86 0-1.97 3.01-1.99 3.03-.02l12.81-4.04 1.37-1.13-.64-1.67-2.45.16-.49-.84 1.35-2.04-1.12-1.38-2.28.86-.73-.67.69-2.34-1.48-1-1.92 1.49-.89-.43L26.19 1l-1.7-.53-1.41 2.01-.97-.15L21.36 0H19.6l-.76 2.34-.95.15-1.4-2-1.71.52-.03 2.45-.88.43-1.92-1.49-1.49 1 .68 2.34-.7.66-2.29-.87-1.11 1.4 1.35 2.04-.49.85-2.44-.15-.65 1.66 1.89 1.56-.2.95-2.37.56L4 16.18l2.26.92.07.98zm15.8-12.65l1.14.22c2.8.71 5.17 2.49 6.67 4.87l.53.97-5.74 1.87c-.9-1.1-1.27-1.38-2.6-1.89V5.43zm-11.11 5.1c1.51-2.39 3.88-4.16 6.68-4.88l1.13-.21v6.04c-1.32.51-1.72.79-2.6 1.89l-5.75-1.86.54-.98zM34.68 38.67l2.1-1.25-.4-1.75-2.42-.21-.14-.34-2.95.93c.75 1.81.96 3.79.63 6.02l-5.74-1.86c-.1-1.12-.17-1.61-.58-2.36l-3.75 1.18c.33.25.56.65.56 1.2 0 2-3.03 1.98-3.03 0 0-.16.02-.3.06-.44l-12.35 3.9.03.14-1.89 1.56.65 1.65 2.44-.15.48.85-1.35 2.04 1.11 1.39 2.29-.87.71.67-.68 2.34 1.47 1.01 1.92-1.49.88.42.03 2.45 1.71.53 1.4-2.01.95.15.76 2.33h1.76l.75-2.33.97-.14 1.41 2 1.7-.53.03-2.43.89-.43 1.92 1.48 1.48-.99-.69-2.34.72-.67 2.28.87 1.12-1.39-1.35-2.04.49-.84 2.45.16.64-1.67-1.88-1.55.22-.95 2.37-.59.14-1.76-2.25-.92-.07-.97zm-15.85 12.6l-1.13-.21c-2.8-.72-5.17-2.5-6.68-4.88l-.53-.97 5.75-1.86c.88 1.1 1.28 1.38 2.6 1.89v6.03zm11.11-5.09c-1.5 2.38-3.87 4.16-6.67 4.87l-1.14.22v-6.04c1.33-.51 1.7-.79 2.6-1.89l5.74 1.86-.53.98zM32.16 29.72c-.03.05-.05.12-.05.2v.26c0 .12.04.17.11.15.04-.01.06-.04.08-.07.02-.04.02-.08.02-.12v-.57c-.08.05-.13.1-.16.15zM25.02 32c-.03.05-.05.12-.05.2v.26c0 .12.04.17.11.15.04-.01.06-.04.08-.07.02-.04.02-.08.02-.12v-.57c-.07.05-.13.1-.16.15zM23.7 31.71c-.05.02-.08.05-.1.09-.02.04-.02.1-.02.16v.87c0 .17.04.25.12.22.05-.02.08-.05.1-.1.02-.05.02-.12.02-.2v-.86c0-.06-.01-.11-.03-.14-.01-.04-.04-.06-.09-.04zM8.44 36.58c-.08.02-.12.1-.12.22v1.01c0 .05.01.08.03.11.02.02.05.03.09.01.04-.01.07-.04.09-.07.02-.03.03-.08.03-.12v-1.01c-.01-.12-.05-.17-.12-.15zM15.32 34.37c-.08.03-.12.11-.12.26v.26l.23-.07v-.26c0-.15-.03-.21-.11-.19zM11.22 35.68c-.08.03-.12.11-.12.26v.26l.23-.07v-.26c0-.15-.04-.21-.11-.19zM13.94 34.83c-.08.02-.12.11-.12.25v.9c0 .07.01.12.02.15.02.03.05.04.09.03.05-.01.07-.04.09-.09.01-.05.02-.11.02-.19V35c0-.07-.01-.12-.02-.16-.01-.01-.04-.02-.08-.01zM28.6 30.13c-.08.03-.12.11-.12.26v.26l.23-.07v-.26c0-.15-.04-.21-.11-.19zM18 34.25c-.03.05-.05.12-.05.2v.26c0 .12.04.17.11.15.04-.01.06-.04.08-.07.02-.04.02-.08.02-.12v-.57c-.07.04-.13.09-.16.15z"/><path class="st0" d="M41 31.46l-3.05-9.56 2.91-10.02L0 24.78l3.02 8.26L.08 44.38 41 31.46zM7.41 38.62l-.66.21-.3-2.33.46-.15.18 1.59.16-1.7.46-.15-.3 2.53zm1.64-1.15c0 .43-.21.71-.62.84-.41.13-.62-.02-.62-.44v-.83c0-.2.05-.37.16-.52.11-.15.26-.26.45-.32s.34-.05.45.03c.11.08.16.22.16.41v.83zm1.4-1.07l-.5.16v-.29c0-.05-.01-.09-.02-.12-.01-.02-.04-.03-.09-.02-.08.03-.12.1-.12.21v1c0 .05.01.08.03.11.02.03.05.03.09.02.04-.01.07-.04.09-.08.02-.04.03-.08.03-.13v-.35l.5-.16v.36c0 .17-.05.32-.16.45s-.25.23-.43.28c-.23.07-.39.07-.49-.02-.1-.08-.15-.24-.15-.48v-.64c0-.18.02-.33.06-.45.04-.12.1-.23.19-.31.09-.09.22-.15.38-.21.18-.06.32-.06.43 0 .11.06.17.17.17.33v.34zm1.37-.54c0 .15 0 .27-.01.37l-.72.23v.4c0 .07.01.13.02.16.02.04.05.05.1.03.04-.01.06-.03.08-.06.02-.03.03-.06.03-.09v-.33l.49-.16v.12c0 .24-.05.43-.14.58-.09.14-.25.25-.48.32-.21.07-.36.06-.46-.03-.09-.09-.14-.25-.14-.48v-.83c0-.19.05-.35.16-.49.11-.13.26-.23.46-.29.4-.13.59 0 .59.39v.16zm.67 1.12l-.14.38-.29.09.09-.35-.17.06v-.41l.51-.16v.39zm2.05-1.36c0 .16-.01.3-.03.4-.02.11-.06.2-.12.29s-.16.15-.29.19c-.12.04-.22.03-.28-.01v.49l-.5.16v-2.47l.5-.16v.11c.07-.11.17-.19.3-.23.16-.05.27-.03.33.05.06.09.09.23.09.42v.76zm1.38-1.08c0 .15 0 .27-.01.37l-.72.23v.4c0 .07.01.13.02.16.02.04.05.05.1.03.04-.01.06-.03.08-.06.02-.03.03-.06.03-.09v-.33l.49-.16v.12c0 .24-.05.43-.14.58-.09.14-.25.25-.48.32-.21.07-.36.06-.46-.03-.09-.09-.14-.25-.14-.48v-.83c0-.19.05-.35.16-.49.11-.13.26-.23.46-.29.4-.13.59 0 .59.39v.16zm1.39-.33l-.5.16v-.29c0-.05-.01-.09-.02-.12-.02-.02-.04-.03-.09-.02-.08.03-.12.1-.12.21v1c0 .05.01.08.03.11.02.03.05.03.09.02.04-.01.07-.04.09-.08.02-.04.03-.08.03-.13v-.35l.5-.16v.36c0 .15-.04.29-.13.41s-.21.22-.36.28c.08.05.15.11.2.19.05.08.07.16.07.24 0 .1-.03.19-.1.28-.07.08-.17.15-.31.19-.09.03-.18.04-.27.03v-.31c.06 0 .11-.01.16-.02.11-.03.16-.11.16-.21 0-.1-.04-.2-.13-.32-.18.04-.31.01-.39-.08-.08-.09-.12-.24-.12-.45v-.64c0-.18.02-.33.06-.45.04-.12.1-.23.19-.31.09-.09.22-.15.38-.21.18-.06.32-.06.43 0 .11.06.17.17.17.33v.34zm2.83-1.76c-.02 0-.03 0-.04.01-.03.01-.04.02-.05.04-.01.02-.01.05-.01.09v.03l.11-.03v.38l-.1.03v1.59l-.49.16v-1.6l-.09.03v-.38l.08-.03v-.14c0-.22.11-.37.33-.44.11-.03.19-.05.25-.04v.3zm1.36 1.67l-.49.16v-.22c-.03.1-.07.17-.12.22-.05.05-.11.09-.2.12-.15.05-.26.04-.32-.04-.06-.07-.09-.2-.09-.38v-1.54l.5-.16v1.55c0 .06.01.09.03.11.02.02.05.02.08.01.05-.02.08-.05.1-.09.01-.05.02-.11.02-.19v-1.46l.49-.16v2.07zm1.41-.45l-.48.15v-1.54c0-.04-.01-.08-.03-.11-.02-.03-.05-.03-.08-.02-.05.02-.08.05-.1.1-.02.05-.02.12-.02.19v1.45l-.49.16v-2.06l.49-.16v.26c.02-.09.06-.17.11-.24.05-.07.12-.12.2-.14.14-.04.24-.03.31.03s.1.18.1.33v1.6zm4.9-1.57l-.5.16v-1.52c0-.13-.03-.19-.1-.17-.05.01-.08.05-.1.1-.02.05-.03.11-.03.17v1.48l-.49.16v-1.52c0-.06-.01-.1-.02-.13s-.04-.04-.08-.03c-.05.02-.09.05-.11.11-.02.06-.03.12-.03.19v1.46l-.48.15v-2.06l.48-.15v.24c.02-.1.06-.17.12-.23.05-.06.13-.11.23-.14.08-.03.15-.03.21-.01.06.02.1.05.13.11.04-.08.09-.15.14-.2.05-.05.12-.09.21-.12.16-.05.27-.04.34.04.06.08.09.21.09.4l-.01 1.51zm1.39-1.8c0 .15 0 .27-.01.37l-.72.23v.4c0 .07.01.12.02.16.02.04.05.05.1.03.04-.01.06-.03.08-.06.02-.03.03-.06.03-.09v-.33l.49-.16v.12c0 .24-.05.43-.14.58-.09.14-.25.25-.48.32-.21.07-.36.06-.46-.03-.09-.09-.14-.25-.14-.48v-.83c0-.19.05-.35.16-.49.11-.13.26-.23.46-.3.4-.13.59 0 .59.39v.17zm2.29-.98l-.14.05v1.16c0 .04 0 .06.01.08.01.02.02.02.05.01.02-.01.04-.01.05-.02.02-.01.03-.01.03-.01v.34c-.03.02-.07.04-.12.06-.05.03-.11.05-.16.06-.13.04-.22.04-.27 0-.05-.04-.07-.12-.07-.24v-1.29l-.14.04v-.37l.14-.04v-.45l.48-.15v.44l.14-.05v.38zm1.33 1.18l-.49.16v-.25c-.02.09-.06.17-.12.23-.05.06-.12.11-.19.13-.16.05-.27.03-.33-.05-.06-.09-.09-.23-.09-.43 0-.16.02-.29.06-.39.04-.1.1-.18.18-.25.08-.06.19-.15.34-.24l.14-.09v-.22c0-.05-.01-.09-.03-.12-.02-.02-.05-.03-.08-.02-.03.01-.05.03-.07.06-.02.03-.03.07-.03.11v.12l-.48.15v-.07c0-.2.05-.36.14-.48.09-.12.25-.21.46-.28.17-.05.31-.05.42 0 .11.05.16.16.16.33v1.6zm.69-.22l-.51.16v-2.43l.5-.16v2.43zm-3.75-9.27c0-.4.07-.8.21-1.19.14-.39.34-.75.59-1.07.25-.33.56-.62.93-.88.36-.26.76-.46 1.2-.6.44-.14.83-.19 1.19-.17.36.03.66.13.91.3.25.17.45.4.59.7.14.3.21.65.21 1.05 0 .02 0 .05.01.08 0 .03.01.05.01.08V22.68c0 .02 0 .05-.01.07 0 .03-.01.05-.01.07v.02c0 .4-.07.8-.21 1.18-.14.38-.34.74-.59 1.07-.25.33-.56.62-.91.87-.36.25-.75.45-1.19.59-.43.14-.82.19-1.18.17-.36-.03-.67-.12-.93-.28-.26-.16-.46-.38-.61-.65-.15-.28-.22-.6-.22-.96v-3.82zm-.38 8.53l.49-.16v.26c.02-.09.06-.17.11-.24.05-.07.12-.12.2-.14.14-.04.24-.03.31.03s.1.18.1.33v1.59l-.48.15v-1.54c0-.04-.01-.08-.03-.11-.02-.03-.05-.03-.08-.02-.05.02-.08.05-.1.1-.02.05-.02.12-.02.19v1.45l-.49.16v-2.05zm-2.29-10.47l2.24-.72v9.3l-2.33.74v-5.85c-.03.05-1.82-.87-1.82-.87l1.91-2.6zm-1.94 12.21c-.02-.02-.05-.03-.08-.02-.03.01-.05.03-.07.06-.02.03-.03.07-.03.11v.12l-.48.15v-.07c0-.2.05-.36.14-.48.09-.12.25-.21.46-.28.17-.05.31-.05.42 0 .11.05.16.16.16.33v1.57l-.49.16v-.25c-.02.09-.06.17-.12.23-.05.06-.12.11-.19.13-.16.05-.27.03-.33-.05-.06-.09-.09-.23-.09-.43 0-.16.02-.29.06-.39.04-.1.1-.18.18-.25.08-.06.19-.15.34-.24l.14-.09v.01-.2c.01-.06 0-.1-.02-.12zm-.84 1.94l-.49.16v-.22c-.03.09-.07.16-.11.22-.05.06-.11.1-.19.12-.12.04-.21.04-.27 0-.06-.04-.1-.1-.12-.19-.02-.09-.03-.21-.03-.36l.01-.93c0-.15.04-.28.11-.39.07-.12.18-.2.31-.24.13-.04.23-.03.3.04v-.48l.49-.16v2.43zm-5.63-11.48l2.88-.92h.01c.41-.13.78-.18 1.11-.14.33.04.61.16.85.35.23.19.42.45.55.79.13.33.19.74.19 1.2 0 .45-.06.89-.19 1.3-.13.42-.31.8-.55 1.14-.23.35-.52.65-.85.9-.34.26-.71.45-1.12.58l-.52.17v3.17l-2.36.75v-9.29zm-.18 11.38c.11.05.16.16.16.33v1.57l-.49.16v-.25c-.02.09-.06.17-.12.23-.05.06-.12.11-.19.13-.16.05-.27.03-.33-.05-.06-.09-.09-.23-.09-.43 0-.16.02-.29.06-.39.04-.1.1-.18.18-.25.08-.06.19-.15.34-.24l.14-.09v-.22c0-.05-.01-.09-.03-.12-.02-.02-.05-.03-.08-.02-.03.01-.05.03-.07.06-.02.03-.03.07-.03.11v.12l-.48.15v-.07c0-.2.05-.36.14-.48.09-.12.25-.21.46-.28.18-.02.32-.02.43.03zm-7.32-5.52c0-.41.08-.85.24-1.32.16-.47.39-.9.68-1.32.36-.48.75-.88 1.19-1.22.44-.33.91-.58 1.41-.74.49-.16.96-.21 1.41-.16.45.05.84.2 1.18.46.31.22.53.5.68.86.15.36.23.75.24 1.18v2.11c0 .45-.07.94-.22 1.45s-.38 1-.7 1.45c-.35.47-.75.88-1.19 1.22-.45.34-.92.59-1.41.75-.48.15-.95.21-1.39.15-.44-.05-.84-.2-1.2-.45-.33-.25-.57-.57-.7-.98-.14-.4-.21-.85-.22-1.35V27.6zm.32 6.94l.33.45-.49.16-.12-.35-.12.43-.49.16.33-.66.56-.19zM4.41 26.3l6.42-2.05v2.33l-2.05.65v6.98l-2.33.74v-6.98l-2.05.65V26.3z"/></svg>